<svg xmlns="http://www.w3.org/2000/svg" width="200" height="250">
    <path
        d="M187.094 110.172c8.02 6.379 10.937 11.437 12.707 21.445 1.5 29.024-14.285 55.785-32.82 76.938-18.524 19.367-40.376 40.683-68.813 41.445-7.45-2.54-9.8-5.34-14.555-11.52-7.285-23.078 3.012-48.277 13.496-68.87 17.309-29.223 52.496-66.278 89.985-59.438Zm0 0"
        style="stroke:none;fill-rule:nonzero;fill:#ebeb06;fill-opacity:1" />
    <path
        d="M172.277 82.625c5.489 3.914 9.977 7.973 14.817 12.715-.696 2.097-1.395 4.191-2.114 6.351l-8.207-.39c-23.914.11-44.863 11.094-62.062 27.273-15.152 16.082-25.227 35.41-33.48 55.746-.633 1.54-1.262 3.078-1.91 4.66-5.282 14.227-6.864 29.07-8.676 44.075-3.887-.418-3.887-.418-8.473-2.121-14.703-22.032-16.875-48.676-12.703-74.153 4.136-17.234 11.12-32.066 21.176-46.61.93-1.355 1.859-2.698 2.82-4.093 23.75-30.812 64.324-41.055 98.812-23.453Zm0 0"
        style="stroke:none;fill-rule:nonzero;fill:#1f4e15;fill-opacity:1" />
    <path
        d="m68.39 75.879 4.516-.086c8.676-.023 15.344.852 23.145 4.715-2.117 6.355-2.117 6.355-7.36 9.16-2.199.96-4.402 1.906-6.668 2.887-18.175 8.75-29.828 21.918-36.789 40.922-3.367 11.64-5.05 22.187-5.03 34.293 0 1.554 0 3.105-.005 4.699.258 12.687 2.89 23.761 7.211 35.719 1.942 5.457 3.192 10.687 4.176 16.39-17.504-4.93-30.926-21.082-40.227-36.02C.801 168.41-2.703 147.52 2.145 124.978c7.035-21.567 21.117-35.97 40.972-46.59 8.14-2.977 16.719-2.504 25.274-2.512Zm0 0"
        style="stroke:none;fill-rule:nonzero;fill:#f63203;fill-opacity:1" />
    <path
        d="M55.824 0C68.48 2.71 74.281 8.664 81.23 19.066 96.38 46.414 96.38 46.414 96.184 62.895l-.055 6.382-.078 4.871c-6.742 2.188-7.84 2.438-14.559-.918C64.273 60.465 52.668 38.008 49.47 17.082c-.45-6.426-.215-8.227 3.043-14.031A993.5 993.5 0 0 1 55.824 0Zm93.16 16.945c2.114 2.121 2.114 2.121 2.114 9.41-2.48 17.56-16.477 32.016-29.641 42.98-6.437 4.099-11.488 4.657-19.055 4.813-2.859-7.39-2.011-12.324.797-19.46 8.145-16.954 24.871-40.063 45.781-37.743Zm0 0"
        style="stroke:none;fill-rule:nonzero;fill:#43a81d;fill-opacity:1" />
</svg>