<svg width="390" height="288" viewBox="0 0 390 288" fill="none" xmlns="http://www.w3.org/2000/svg">
<g clip-path="url(#clip0_2005_90)">
<path d="M350.922 268.303H325.088V268.498H350.922V268.303Z" fill="#EBEBEB"/>
<path d="M258.352 270.428H251.573V270.623H258.352V270.428Z" fill="#EBEBEB"/>
<path d="M324.309 261.056H309.34V261.251H324.309V261.056Z" fill="#EBEBEB"/>
<path d="M74.6069 262.368H40.9187V262.563H74.6069V262.368Z" fill="#EBEBEB"/>
<path d="M86.4943 262.368H81.5569V262.563H86.4943V262.368Z" fill="#EBEBEB"/>
<path d="M175.617 265.664H102.547V265.859H175.617V265.664Z" fill="#EBEBEB"/>
<path d="M185.952 220.905H35.3339C32.8769 220.905 30.8801 218.905 30.8801 216.445V4.45949C30.8801 1.99935 32.8769 0 35.3339 0H185.952C188.409 0 190.406 1.99935 190.406 4.45949V216.445C190.406 218.905 188.409 220.905 185.952 220.905ZM35.3339 0.195249C32.9861 0.195249 31.0751 2.10869 31.0751 4.45949V216.445C31.0751 218.796 32.9861 220.709 35.3339 220.709H185.952C188.3 220.709 190.211 218.796 190.211 216.445V4.45949C190.211 2.10869 188.3 0.195249 185.952 0.195249H35.3339Z" fill="#EBEBEB"/>
<path d="M354.666 220.905H204.048C201.591 220.905 199.594 218.905 199.594 216.445V4.45949C199.594 1.99935 201.591 0 204.048 0H354.666C357.123 0 359.12 1.99935 359.12 4.45949V216.445C359.12 218.905 357.123 220.905 354.666 220.905ZM204.048 0.195249C201.7 0.195249 199.789 2.10869 199.789 4.45949V216.445C199.789 218.796 201.7 220.709 204.048 220.709H354.666C357.014 220.709 358.925 218.796 358.925 216.445V4.45949C358.925 2.10869 357.014 0.195249 354.666 0.195249H204.048Z" fill="#EBEBEB"/>
<path d="M390 255.737H0V255.932H390V255.737Z" fill="#EBEBEB"/>
<path d="M317.288 85.8002H286.455C283.522 85.8002 281.143 88.1822 281.143 91.1188V111.003C281.143 113.939 283.522 116.322 286.455 116.322H295.323L299.286 121.507C300.588 123.218 303.162 123.218 304.465 121.507L308.427 116.322H317.296C320.229 116.322 322.608 113.939 322.608 111.003V91.1188C322.608 88.1822 320.229 85.8002 317.296 85.8002H317.288Z" fill="#E0E0E0"/>
<path d="M295.238 103.185C293.693 101.67 293.03 100.014 293.03 98.5304C293.03 96 294.715 94.313 297.273 94.313C299.66 94.313 300.471 95.4221 301.868 97.0231C303.264 95.4221 304.075 94.313 306.462 94.313C309.02 94.313 310.705 96 310.705 98.5304C310.705 100.014 310.034 101.67 308.498 103.185L301.868 109.792L295.238 103.185Z" fill="white"/>
<path d="M78.6709 242.156C76.8535 240.375 76.0657 238.415 76.0657 236.665C76.0657 233.682 78.0547 231.69 81.0655 231.69C83.8735 231.69 84.8329 232.994 86.4787 234.877C88.1245 232.994 89.0839 231.69 91.8919 231.69C94.9027 231.69 96.8917 233.682 96.8917 236.665C96.8917 238.415 96.1039 240.367 94.2865 242.156L86.4787 249.942L78.6709 242.156Z" fill="#E0E0E0"/>
<path d="M96.3065 250.942C95.1989 249.848 94.7153 248.653 94.7153 247.591C94.7153 245.764 95.9321 244.553 97.7729 244.553C99.4889 244.553 100.074 245.35 101.08 246.506C102.086 245.35 102.671 244.553 104.387 244.553C106.228 244.553 107.445 245.772 107.445 247.591C107.445 248.661 106.961 249.856 105.854 250.942L101.08 255.698L96.3065 250.942Z" fill="#EBEBEB"/>
<path d="M296.571 29.1546H261.198C257.837 29.1546 255.107 31.8881 255.107 35.2541V58.067C255.107 61.4331 257.837 64.1666 261.198 64.1666H271.37L275.909 70.1178C277.407 72.0781 280.355 72.0781 281.853 70.1178L286.393 64.1666H296.564C299.925 64.1666 302.655 61.4331 302.655 58.067V35.2541C302.655 31.8881 299.925 29.1546 296.564 29.1546H296.571Z" fill="#F5F5F5"/>
<path d="M267.774 55.8334H271.783V41.5646H267.103L267.774 55.8334Z" fill="#E0E0E0"/>
<path d="M290.371 43.7982C290.168 43.1656 289.528 41.8379 288.92 41.5724C287.165 40.7836 283.319 41.0335 279.911 41.4865C280.051 41.2131 280.176 40.971 280.238 40.7914C280.535 40.0182 281.003 38.3937 280.948 37.5737C280.901 36.8161 280.55 35.137 279.911 34.7387C279.568 34.52 278.585 34.4497 278.304 34.7387C277.633 35.4416 278.101 37.6752 277.828 38.6202C277.579 39.4793 276.463 41.0023 275.504 42.1972C274.318 42.4159 273.554 42.5799 273.554 42.5799V55.1773C273.554 55.1773 283.826 57.9733 287.134 57.0752C288.405 56.7237 289.006 54.5213 289.474 53.2873C290.308 51.0693 291.088 46.0709 290.363 43.8139L290.371 43.7982Z" fill="#E0E0E0"/>
<path d="M207.09 48.9684C206.716 44.3293 202.847 40.7602 198.206 40.7602H191.794C187.145 40.7602 183.284 44.3293 182.91 48.9684L182.372 54.412H207.628L207.09 48.9684Z" fill="#EBEBEB"/>
<path d="M195 40.7602C198.321 40.7602 201.014 38.0643 201.014 34.7387C201.014 31.4131 198.321 28.7172 195 28.7172C191.679 28.7172 188.986 31.4131 188.986 34.7387C188.986 38.0643 191.679 40.7602 195 40.7602Z" fill="#EBEBEB"/>
<path d="M75.6757 132.918C74.7163 132.918 73.8349 133.254 73.1407 133.824L68.3125 129.926C68.5855 129.38 68.7493 128.763 68.7493 128.107C68.7493 125.881 66.9475 124.077 64.7245 124.077C62.5015 124.077 60.6997 125.881 60.6997 128.107C60.6997 130.333 62.5015 132.137 64.7245 132.137C65.6839 132.137 66.5653 131.801 67.2595 131.231L72.0877 135.128C71.8147 135.675 71.6509 136.292 71.6509 136.948C71.6509 137.604 71.8069 138.221 72.0877 138.767L67.2595 142.664C66.5653 142.102 65.6839 141.759 64.7245 141.759C62.5015 141.759 60.6997 143.563 60.6997 145.788C60.6997 148.014 62.5015 149.818 64.7245 149.818C66.9475 149.818 68.7493 148.014 68.7493 145.788C68.7493 145.132 68.5933 144.515 68.3125 143.969L73.1407 140.072C73.8349 140.634 74.7163 140.978 75.6757 140.978C77.8987 140.978 79.7005 139.173 79.7005 136.948C79.7005 134.722 77.8987 132.918 75.6757 132.918Z" fill="#E0E0E0"/>
<path d="M195 288C278.524 288 346.234 284.042 346.234 279.159C346.234 274.276 278.524 270.318 195 270.318C111.476 270.318 43.7659 274.276 43.7659 279.159C43.7659 284.042 111.476 288 195 288Z" fill="#F5F5F5"/>
<path d="M270.551 169.585H329.581C334.113 169.585 337.787 173.264 337.787 177.801V222.732C337.787 227.27 334.113 230.948 329.581 230.948H285.004C284.131 238.133 278.023 243.702 270.613 243.702C270.286 243.702 269.966 243.671 269.638 243.655C271.947 240.609 273.827 236.204 275.059 230.948H270.543C266.011 230.948 262.337 227.27 262.337 222.732V177.801C262.337 173.264 266.011 169.585 270.543 169.585H270.551Z" fill="#407BFF"/>
<path d="M270.551 169.585H329.581C334.113 169.585 337.787 173.264 337.787 177.801V222.732C337.787 227.27 334.113 230.948 329.581 230.948H285.004C284.131 238.133 278.023 243.702 270.613 243.702C270.286 243.702 269.966 243.671 269.638 243.655C271.947 240.609 273.827 236.204 275.059 230.948H270.543C266.011 230.948 262.337 227.27 262.337 222.732V177.801C262.337 173.264 266.011 169.585 270.543 169.585H270.551Z" fill="#375A64"/>
<path d="M267.758 187.048L264.841 182.113L266.666 178.957C266.908 178.543 266.947 178.051 266.776 177.606L266.643 177.247C266.417 176.653 265.847 176.247 265.208 176.232L262.345 176.154C261.752 176.138 261.206 176.458 260.918 176.974L260.341 178.036C260.06 178.551 260.036 179.176 260.286 179.715L261.518 182.378L263.804 188.501L267.766 187.041L267.758 187.048Z" fill="#FFB573"/>
<path d="M290.995 186.182L274.334 198.326L266.503 183.667L262.057 185.596C262.057 185.596 268.913 207.823 272.891 206.925C276.877 206.027 288.124 200.458 291.79 196.639C293.639 194.71 295.043 191.18 293.218 186.799C292.851 185.924 291.759 185.627 290.995 186.189V186.182Z" fill="#51BD88"/>
<path d="M297.219 157.269C297.219 157.269 291.33 158.815 294.06 165.923C294.06 165.923 296.985 165.149 297.468 163.252C297.944 161.354 298.397 158.691 298.397 158.691L297.227 157.269H297.219Z" fill="#263238"/>
<path opacity="0.3" d="M297.219 157.269C297.219 157.269 291.33 158.815 294.06 165.923C294.06 165.923 296.985 165.149 297.468 163.252C297.944 161.354 298.397 158.691 298.397 158.691L297.227 157.269H297.219Z" fill="black"/>
<path d="M311.126 185.486L300.378 185.127L295.932 185.775L295.323 193.89L303.989 196.772L313.232 194.929L313.716 187.111L313.053 185.549L311.126 185.486Z" fill="#FFB573"/>
<path d="M296.494 230.948H311.704C311.86 225.583 312.647 197.725 312.484 197.897C312.296 198.084 314.09 191.961 314.09 191.961V189.485L312.484 186.83C312.484 186.83 309.028 192.102 303.358 191.836C297.976 191.586 297.047 186.213 297.047 186.213L296.369 194.437L295.69 214.344L296.556 222.787L296.501 230.956L296.494 230.948Z" fill="white"/>
<path opacity="0.6" d="M296.494 230.948H311.704C311.86 225.583 312.647 197.725 312.484 197.897C312.296 198.084 314.09 191.961 314.09 191.961V189.485L312.484 186.83C312.484 186.83 309.028 192.102 303.358 191.836C297.976 191.586 297.047 186.213 297.047 186.213L296.369 194.437L295.69 214.344L296.556 222.787L296.501 230.956L296.494 230.948Z" fill="white"/>
<path d="M290.441 230.948H298.685C300.308 220.202 300.518 200.552 300.518 200.552C300.518 200.552 298.709 193.624 298.217 189.126C297.726 184.627 304.145 185.221 309.769 185.963C315.393 186.705 305.401 200.927 305.401 200.927C305.401 200.927 304.699 220.147 306.337 230.948H326.656C325.642 228.082 322.647 219.28 321.929 213.04C321.064 205.496 326.251 194.491 325.51 189.126C324.769 183.76 307 184.854 307 184.854C307 184.854 295.62 184.776 293.085 184.893C290.113 185.026 288.935 192.843 287.531 199.021C286.127 205.199 288.709 211.314 290.113 219.085C291.034 224.177 290.745 228.543 290.441 230.948Z" fill="#263238"/>
<path d="M299.489 184.823C303.194 184.823 307 184.846 307 184.846C307 184.846 309.278 184.705 312.226 184.776C313.404 185.58 314.956 187.447 313.716 191.399L311.142 192.39L311.61 194.929C311.61 194.929 308.646 199.63 305.378 201.419C305.386 201.106 305.393 200.927 305.393 200.927C305.393 200.927 315.385 186.705 309.761 185.963C304.137 185.221 297.718 184.627 298.21 189.126C298.701 193.624 300.51 200.552 300.51 200.552C300.51 200.552 300.51 200.63 300.51 200.763C298.927 199.349 297.578 196.842 296.603 193.874L297.656 190.953L295.331 189.673C295.331 189.673 295.698 186.236 299.489 184.83V184.823Z" fill="#51BD88"/>
<path d="M299.364 189.087C298.771 187.525 299.598 186.51 299.598 186.51C303.826 185.073 303.436 181.902 302.461 178.95L309.27 171.991C308.864 175.693 308.716 184.213 311.134 187.181V187.861C307.928 191.664 304.13 191.641 302.055 191.25C300.854 191.024 299.801 190.227 299.364 189.087Z" fill="#FFB573"/>
<path opacity="0.1" d="M302.461 178.95L307.866 173.428L309.114 173.881C309.075 174.545 309.052 175.271 309.036 176.036C308.35 177.442 306.704 179.418 302.858 180.41C302.749 179.926 302.609 179.434 302.445 178.957L302.461 178.95Z" fill="black"/>
<path d="M312.741 165.86C311.095 172.163 310.534 174.865 306.673 177.505C300.862 181.48 293.491 178.075 293.225 171.413C292.984 165.407 295.714 156.113 302.445 154.801C307.25 153.841 311.922 156.957 312.889 161.775C313.162 163.134 313.108 164.532 312.749 165.86H312.741Z" fill="#FFB573"/>
<path d="M297.781 167.485C297.086 168.578 296.244 169.578 295.285 170.437C295.745 170.929 296.392 171.186 297.063 171.155L297.788 167.485H297.781Z" fill="#630F0F"/>
<path d="M304.496 165.157C304.543 165.157 304.582 165.142 304.629 165.118C304.754 165.048 304.793 164.884 304.715 164.767C304.231 163.915 303.358 163.345 302.383 163.252C302.242 163.252 302.125 163.361 302.117 163.501C302.117 163.642 302.219 163.759 302.359 163.767C303.163 163.861 303.88 164.329 304.278 165.04C304.325 165.118 304.411 165.165 304.496 165.165V165.157Z" fill="#263238"/>
<path d="M294.068 163.252C294.115 163.252 294.153 163.236 294.2 163.212C294.894 162.799 295.745 162.744 296.486 163.064C296.61 163.134 296.766 163.088 296.837 162.963C296.899 162.83 296.852 162.681 296.72 162.611C295.823 162.213 294.785 162.267 293.943 162.767C293.818 162.83 293.763 162.986 293.834 163.111C293.88 163.197 293.974 163.259 294.075 163.252H294.068Z" fill="#263238"/>
<path d="M299.692 172.889C299.387 172.889 299.083 172.866 298.787 172.811C298.701 172.795 298.647 172.717 298.654 172.631C298.67 172.545 298.748 172.491 298.834 172.499C300.167 172.756 301.548 172.374 302.554 171.46C302.617 171.397 302.718 171.39 302.78 171.452C302.843 171.514 302.851 171.616 302.788 171.678C301.954 172.475 300.838 172.905 299.684 172.897L299.692 172.889Z" fill="#263238"/>
<path d="M310.619 170.788C310.619 170.788 308.272 168.523 308.708 164.384C308.708 164.384 306.173 161.791 306.298 159.003C306.298 159.003 305.549 161.221 306.298 162.799C306.298 162.799 299.723 162.322 299.879 159.003C299.879 159.003 299.45 160.674 300.433 161.541C300.433 161.541 294.59 161.791 295.386 158.761C296.174 155.731 300.752 154.247 300.752 154.247C300.752 154.247 305.113 150.537 311.142 157.089C311.142 157.089 318.24 161.526 313.209 168.929L310.627 170.788H310.619Z" fill="#263238"/>
<path d="M313.256 171.202C312.671 172.319 311.665 173.155 310.463 173.529C308.864 174.014 308.038 172.592 308.451 171.062C308.825 169.695 310.105 167.781 311.727 167.969C312.905 168.141 313.716 169.234 313.544 170.405C313.505 170.687 313.404 170.96 313.264 171.202H313.256Z" fill="#FFB573"/>
<path d="M302.515 166.586C302.46 167.125 302.125 167.539 301.766 167.5C301.407 167.469 301.173 166.993 301.236 166.446C301.298 165.899 301.626 165.493 301.977 165.532C302.328 165.571 302.57 166.04 302.515 166.586Z" fill="#2E353A"/>
<path d="M296.361 165.938C296.306 166.477 295.971 166.891 295.62 166.852C295.269 166.813 295.027 166.344 295.082 165.798C295.136 165.251 295.472 164.845 295.823 164.884C296.174 164.923 296.423 165.391 296.361 165.938Z" fill="#2E353A"/>
<path d="M295.971 164.93L294.707 164.423C294.707 164.423 295.277 165.507 295.971 164.93Z" fill="#2E353A"/>
<path d="M302.125 165.578L300.862 165.063C300.862 165.063 301.431 166.148 302.125 165.578Z" fill="#2E353A"/>
<path d="M310.073 176.474C311.235 176.474 312.179 175.529 312.179 174.365C312.179 173.834 311.984 173.326 311.625 172.936L311.353 173.186C311.649 173.506 311.813 173.928 311.813 174.365C311.813 175.326 311.033 176.107 310.073 176.107C309.114 176.107 308.334 175.326 308.334 174.365C308.334 173.404 309.114 172.623 310.073 172.623C310.323 172.623 310.557 172.678 310.783 172.772L310.931 172.436C310.658 172.311 310.37 172.249 310.073 172.249C308.911 172.249 307.967 173.194 307.967 174.357C307.967 175.521 308.911 176.466 310.073 176.466V176.474Z" fill="#407BFF"/>
<g opacity="0.6">
<path d="M310.073 176.474C311.235 176.474 312.179 175.529 312.179 174.365C312.179 173.834 311.984 173.326 311.625 172.936L311.353 173.186C311.649 173.506 311.813 173.928 311.813 174.365C311.813 175.326 311.033 176.107 310.073 176.107C309.114 176.107 308.334 175.326 308.334 174.365C308.334 173.404 309.114 172.623 310.073 172.623C310.323 172.623 310.557 172.678 310.783 172.772L310.931 172.436C310.658 172.311 310.37 172.249 310.073 172.249C308.911 172.249 307.967 173.194 307.967 174.357C307.967 175.521 308.911 176.466 310.073 176.466V176.474Z" fill="white"/>
</g>
<path d="M308.623 208.37L302.897 208.62L300.979 205.527C300.729 205.121 300.308 204.855 299.84 204.793L299.465 204.746C298.834 204.668 298.21 204.972 297.898 205.535L296.486 208.026C296.197 208.541 296.213 209.174 296.54 209.674L297.203 210.689C297.523 211.181 298.061 211.494 298.654 211.525L301.587 211.689L308.061 212.564L308.646 208.377L308.623 208.37Z" fill="#FFB573"/>
<path d="M318.802 187.447L321.649 207.885H305.042L304.645 212.72C304.645 212.72 327.452 217.14 328.544 213.204C329.628 209.26 330.026 196.702 328.388 191.664C327.561 189.126 325.112 186.221 320.393 185.768C319.449 185.682 318.677 186.502 318.809 187.439L318.802 187.447Z" fill="#51BD88"/>
<path d="M246.238 69.5633H228.01L209.625 279.948H227.854C236.301 279.948 243.75 273.091 244.491 264.633L260.2 84.8864C260.941 76.4282 254.686 69.5711 246.238 69.5711V69.5633Z" fill="#263238"/>
<path d="M257.533 90.658C257.611 89.7755 258.453 89.0726 259.358 89.2053C259.249 89.8848 259.795 90.5721 260.465 90.7205L259.249 104.661C258.625 104.903 258.149 105.473 258.133 106.145C257.096 106.465 256.222 105.716 256.308 104.755L257.54 90.658H257.533Z" fill="#407BFF"/>
<path d="M257.533 90.658C257.611 89.7755 258.453 89.0726 259.358 89.2053C259.249 89.8848 259.795 90.5721 260.465 90.7205L259.249 104.661C258.625 104.903 258.149 105.473 258.133 106.145C257.096 106.465 256.222 105.716 256.308 104.755L257.54 90.658H257.533Z" fill="#51BD88"/>
<path d="M224.125 279.94H149.019C140.572 279.94 134.316 273.083 135.057 264.625L150.766 84.8786C151.507 76.4204 158.956 69.5633 167.404 69.5633H242.51C250.957 69.5633 257.213 76.4204 256.472 84.8786L240.763 264.625C240.022 273.083 232.573 279.94 224.125 279.94Z" fill="#51BD88"/>
<path d="M242.206 73.0778H222.682C221.403 73.0778 220.241 74.0306 219.968 75.2958L219.835 75.905C219.172 79.0055 216.333 81.3329 213.205 81.3329H194.649C191.529 81.3329 189.095 79.0055 188.971 75.905L188.947 75.2958C188.893 74.0228 187.902 73.0778 186.623 73.0778H167.099C160.586 73.0778 154.846 78.3651 154.276 84.8786L138.567 264.625C137.998 271.146 142.81 276.426 149.323 276.426H224.429C230.942 276.426 236.683 271.138 237.253 264.625L252.962 84.8786C253.531 78.3573 248.719 73.0778 242.206 73.0778Z" fill="#407BFF"/>
<path opacity="0.7" d="M242.206 73.0778H222.682C221.403 73.0778 220.241 74.0306 219.968 75.2958L219.835 75.905C219.172 79.0055 216.333 81.3329 213.205 81.3329H194.649C191.529 81.3329 189.095 79.0055 188.971 75.905L188.947 75.2958C188.893 74.0228 187.902 73.0778 186.623 73.0778H167.099C160.586 73.0778 154.846 78.3651 154.276 84.8786L138.567 264.625C137.998 271.146 142.81 276.426 149.323 276.426H224.429C230.942 276.426 236.683 271.138 237.253 264.625L252.962 84.8786C253.531 78.3573 248.719 73.0778 242.206 73.0778Z" fill="white"/>
<g opacity="0.2">
<path d="M199.93 74.7725C200.039 75.8269 199.056 76.7328 198.019 76.5376C197.964 75.9674 197.512 75.4754 196.95 75.3661C196.841 74.3117 197.824 73.4058 198.861 73.6088C198.916 74.179 199.368 74.671 199.93 74.7803V74.7725Z" fill="black"/>
<path d="M210.569 73.5698H205.608C205.335 74.1009 204.633 74.5695 204.032 74.5382C203.564 75.6316 204.321 76.6391 205.39 76.5532C207.028 76.6938 208.658 76.6313 210.304 76.5532C211.247 76.6001 212.09 75.7566 211.996 74.7803C211.294 74.8272 210.686 74.2649 210.569 73.5698Z" fill="black"/>
</g>
<path d="M162.762 81.3017H164.338L164.478 79.724H162.903L162.762 81.3017Z" fill="#51BD88"/>
<path d="M166.062 79.724L165.921 81.3017H167.497L167.637 79.724L167.778 78.1386H166.194L166.062 79.724Z" fill="#51BD88"/>
<path d="M169.494 76.561L169.354 78.1386L169.221 79.724L169.081 81.3017H170.656L170.797 79.724L170.937 78.1386L171.07 76.561H169.494Z" fill="#51BD88"/>
<path d="M237.408 76.6625L237.307 77.8262H236.535L236.332 80.1458H237.104L237.003 81.3017H243.953L244.358 76.6625H237.408ZM240.193 80.1458H237.876L238.079 77.8262H240.396L240.193 80.1458Z" fill="#51BD88"/>
<g opacity="0.4">
<path d="M194.704 81.3329L142.857 274.364C144.635 275.66 146.858 276.426 149.331 276.426H153.387L205.787 81.3329H194.711H194.704Z" fill="white"/>
<path d="M242.206 73.0778H222.682C221.403 73.0778 220.241 74.0306 219.968 75.2958L219.835 75.905C219.188 78.9274 216.473 81.2001 213.447 81.3173L161.047 276.426H201.014L252.962 83.012C252.556 77.3811 248.079 73.07 242.206 73.07V73.0778Z" fill="white"/>
</g>
<path d="M163.73 125.467L161.39 124.959C160.758 124.819 160.391 124.155 160.625 123.546L163.886 115.002L167.622 115.814L164.962 124.741C164.806 125.272 164.26 125.592 163.722 125.475L163.73 125.467Z" fill="#51BD88"/>
<path d="M172.793 114.533C172.146 114.392 171.733 113.752 171.873 113.104L172.193 111.643C172.333 110.995 172.973 110.581 173.62 110.722C174.268 110.862 174.681 111.503 174.541 112.151L174.221 113.611C174.08 114.26 173.441 114.674 172.793 114.533Z" fill="#51BD88"/>
<path d="M170.485 107.254C170.485 107.254 161.593 106.239 158.48 104.638C151.156 100.873 144.167 91.8919 142.685 91.5717C140.267 91.0485 136.976 96.7732 135.322 104.372C133.676 111.971 134.293 118.555 136.711 119.078C138.193 119.399 148.278 114.143 156.499 113.76C159.994 113.596 168.503 116.376 168.503 116.376L170.485 107.254Z" fill="#407BFF"/>
<path d="M170.485 107.254C170.485 107.254 161.593 106.239 158.48 104.638C151.156 100.873 144.167 91.8919 142.685 91.5717C140.267 91.0485 136.976 96.7732 135.322 104.372C133.676 111.971 134.293 118.555 136.711 119.078C138.193 119.399 148.278 114.143 156.499 113.76C159.994 113.596 168.503 116.376 168.503 116.376L170.485 107.254Z" fill="#EBEBEB"/>
<path d="M144.074 106.278C142.428 113.877 139.129 119.602 136.711 119.078C134.293 118.555 133.669 111.971 135.322 104.372C136.968 96.7732 140.267 91.0485 142.685 91.5717C145.103 92.095 145.727 98.6788 144.074 106.278Z" fill="#407BFF"/>
<path d="M144.074 106.278C142.428 113.877 139.129 119.602 136.711 119.078C134.293 118.555 133.669 111.971 135.322 104.372C136.968 96.7732 140.267 91.0485 142.685 91.5717C145.103 92.095 145.727 98.6788 144.074 106.278Z" fill="#51BD88"/>
<path d="M169.042 106.223L164.915 105.325C163.792 105.083 162.685 105.833 162.529 106.973C162.388 108.012 162.193 109.082 161.959 110.175C161.725 111.268 161.452 112.323 161.148 113.322C160.82 114.424 161.515 115.572 162.638 115.814L167.528 116.876C170.461 117.516 172.567 115.447 173.168 112.495C173.745 109.636 171.889 106.84 169.034 106.215L169.042 106.223Z" fill="#263238"/>
<path d="M139.831 104.732L139.573 105.919C139.425 106.606 139.792 107.309 140.439 107.582L143.442 108.832C143.676 108.012 143.887 107.16 144.082 106.278C144.269 105.395 144.433 104.536 144.557 103.693L141.313 103.583C140.603 103.56 139.987 104.044 139.831 104.732Z" fill="#263238"/>
<path opacity="0.8" d="M139.831 104.732L139.573 105.919C139.425 106.606 139.792 107.309 140.439 107.582L143.442 108.832C143.676 108.012 143.887 107.16 144.082 106.278C144.269 105.395 144.433 104.536 144.557 103.693L141.313 103.583C140.603 103.56 139.987 104.044 139.831 104.732Z" fill="white"/>
<path opacity="0.2" d="M142.093 105.848C141.929 106.606 141.742 107.332 141.547 108.051L143.434 108.832C143.668 108.012 143.879 107.16 144.074 106.278C144.261 105.395 144.425 104.536 144.55 103.693L142.506 103.622C142.389 104.349 142.249 105.091 142.085 105.848H142.093Z" fill="black"/>
<path d="M214.157 106.317C214.157 106.317 216.427 107.324 218.712 105.825C221.107 104.255 225.607 106.231 224.242 112.62C221.902 123.616 217.019 131.512 220.186 134.839C220.186 134.839 209.641 135.323 211.201 125.998C212.371 119.008 220.303 111.065 218.392 109.488C217.753 108.965 216.824 109.23 213.829 109.23L214.149 106.309L214.157 106.317Z" fill="#263238"/>
<path d="M213.837 109.238C215.693 109.238 217.09 109.417 218.119 109.753C218.79 107.824 218.751 106.137 218.681 105.341C216.239 105.606 214.165 106.317 214.165 106.317L213.845 109.238H213.837Z" fill="#407BFF"/>
<path d="M203.908 98.3039C203.908 98.3039 199.524 97.0465 202.418 94.2193C206.193 90.5252 211.567 97.437 211.567 97.437C211.567 97.437 224.141 102.943 213.759 115.712C213.759 115.712 210.015 122.429 209.227 119.82C208.447 117.212 213.658 109.792 213.658 109.792L213.346 103.154L211.903 100.561L207.371 97.9759L203.908 98.3039Z" fill="#263238"/>
<path d="M186.521 135.698C185.273 133.652 182.598 133.011 180.554 134.261L180.484 134.3C179.127 135.136 177.668 136.073 176.233 136.924L171.904 139.525C169.876 140.72 167.84 141.876 165.789 143C165.664 141.555 165.656 139.939 165.719 138.314C165.773 136.487 165.898 134.62 166.046 132.754C166.171 130.879 166.366 128.981 166.53 127.123V127.076C166.616 126.123 166.062 125.201 165.126 124.858C164.003 124.444 162.763 125.022 162.349 126.146C161.655 128.029 161.109 129.887 160.571 131.793C160.056 133.699 159.604 135.628 159.237 137.604C158.894 139.595 158.582 141.602 158.582 143.867C158.605 145.015 158.621 146.187 159.089 147.788C159.377 148.584 159.713 149.608 160.961 150.709C161.577 151.24 162.451 151.685 163.332 151.857C164.206 152.029 164.97 151.966 165.61 151.841C165.781 151.81 165.968 151.755 166.14 151.685L166.397 151.576C168.059 150.888 169.712 150.201 171.319 149.42C172.942 148.663 174.533 147.874 176.101 147.03C177.676 146.202 179.221 145.328 180.749 144.422C182.278 143.485 183.76 142.594 185.297 141.532C187.161 140.228 187.723 137.666 186.521 135.698Z" fill="#FFB573"/>
<path d="M190.343 130.005C192.972 135.308 189.189 139.908 182.255 147.28C176.077 142.11 175.071 135.721 175.071 135.721C175.071 135.721 183.066 129.099 190.343 130.012V130.005Z" fill="#51BD88"/>
<path opacity="0.2" d="M190.593 136.299C188.027 134.73 185.149 134.034 183.121 136.588C180.866 139.439 179.018 141.126 177.731 142.11C178.792 143.789 180.242 145.593 182.255 147.28C186.397 142.875 189.4 139.462 190.593 136.299Z" fill="black"/>
<path d="M164.549 117.157L166.335 118.336C167.006 118.782 167.419 119.516 167.45 120.32L167.583 124.077C167.638 125.576 166.959 127.013 165.773 127.927L165.032 128.489C161.944 126.74 159.892 122.569 159.892 122.569L159.175 121.445C158.535 120.445 158.785 119.188 159.744 118.555L161.951 117.103C162.716 116.603 163.745 116.618 164.549 117.149V117.157Z" fill="#FFB573"/>
<path d="M184.228 276.426C188.277 263.898 191.03 250.051 188.284 239.922C204.976 190.829 197.449 176.536 197.449 176.536L177.583 169.281C177.583 169.281 174.744 213.493 173.886 234.869C173.41 246.834 171.366 262.376 169.018 276.418H184.221L184.228 276.426Z" fill="#263238"/>
<path opacity="0.5" d="M194.532 194.702L190.499 188.197L188.027 193.273C188.027 193.273 185.702 212.767 189.844 235.212C193.713 223.248 196.069 213.516 197.441 205.66L194.532 194.702Z" fill="black"/>
<path d="M196.435 276.426H211.489C213.026 263.445 213.041 249.473 208.447 240.125C215.444 188.743 205.319 176.154 205.319 176.154L184.431 172.842C184.431 172.842 190.102 216.781 193.354 237.93C195.039 248.88 195.991 263.086 196.435 276.418V276.426Z" fill="#263238"/>
<path d="M181.022 139.876C180.5 142.649 179.813 144.711 179.15 151.419C178.48 157.082 177.988 162.674 177.341 172.022L205.616 176.505C206.31 168.437 208.673 159.495 216.59 142.352C218.423 138.377 216.434 133.964 212.308 132.879C211.208 132.59 210.031 132.301 208.822 132.051C204.118 131.067 200.249 130.301 195.983 130.012C194.563 129.919 193.097 129.864 191.677 129.841C186.576 129.747 181.958 134.909 181.022 139.876Z" fill="#51BD88"/>
<path d="M210.21 117.431C208.439 121.39 205.865 128.755 208.12 131.941C208.12 131.941 204.298 130.731 195.179 134.558C193.323 130.723 195.281 129.903 195.281 129.903C200.148 129.544 200.819 126.146 200.764 122.843L210.21 117.431Z" fill="#FFB573"/>
<path d="M197.09 133.8C198.151 134.128 198.822 134.995 199.251 135.932C199.93 137.416 201.708 138.018 203.12 137.205C205.429 135.885 208.408 134.003 209.882 132.332C208.985 131.668 207.722 130.426 207.722 130.426C207.722 130.426 198.939 132.472 197.09 133.8Z" fill="white"/>
<path d="M194.555 132.949C194.555 132.949 193.697 133.043 192.715 133.769C192.028 134.277 191.077 133.589 191.357 132.785C192.332 130.02 194.009 129.692 194.009 129.692C194.009 129.692 194.961 129.216 196.537 129.723C194.189 130.528 194.548 132.949 194.548 132.949H194.555Z" fill="white"/>
<path opacity="0.2" d="M206.357 119.641L200.764 122.843C200.78 123.624 200.749 124.413 200.632 125.162C202.449 125.186 205.319 123.663 205.936 121.867C206.24 120.968 206.411 120.094 206.357 119.641Z" fill="black"/>
<path d="M215.054 109.691C212.745 116.173 211.903 118.953 207.589 121.554C201.1 125.467 193.635 121.671 193.963 114.744C194.251 108.504 197.98 98.96 205.202 97.8431C212.316 96.7419 217.355 103.216 215.046 109.699L215.054 109.691Z" fill="#FFB573"/>
<path d="M206.357 109.449C206.185 110.003 205.756 110.378 205.405 110.3C205.046 110.214 204.898 109.699 205.07 109.144C205.241 108.59 205.67 108.215 206.021 108.293C206.38 108.379 206.528 108.894 206.357 109.449Z" fill="#263238"/>
<path d="M199.454 107.598C199.282 108.152 198.853 108.527 198.502 108.449C198.143 108.363 197.995 107.848 198.167 107.293C198.338 106.739 198.767 106.364 199.118 106.442C199.469 106.52 199.625 107.043 199.454 107.598Z" fill="#263238"/>
<path d="M199.267 106.52L198.073 105.833C198.073 105.833 198.424 107.028 199.267 106.52Z" fill="#263238"/>
<path d="M201.459 108.738C201.459 108.738 199.797 110.901 198.424 111.807C198.939 112.659 200.257 112.635 200.257 112.635L201.459 108.738Z" fill="#BA4D3C"/>
<path d="M208.455 106.231C208.369 106.215 208.291 106.169 208.237 106.098C207.457 104.888 206.224 104.927 206.209 104.927C206.029 104.927 205.881 104.794 205.881 104.607C205.881 104.419 206.045 104.271 206.224 104.263C206.287 104.263 207.839 104.216 208.806 105.716C208.9 105.864 208.853 106.075 208.689 106.184C208.611 106.239 208.525 106.254 208.44 106.239L208.455 106.231Z" fill="#263238"/>
<path d="M197.972 102.966C197.894 102.935 197.831 102.873 197.8 102.795C197.738 102.631 197.831 102.435 198.011 102.373C199.805 101.693 201.084 102.529 201.131 102.56C201.279 102.662 201.31 102.865 201.201 103.013C201.084 103.162 200.873 103.201 200.717 103.099C200.67 103.068 199.664 102.428 198.245 102.974C198.151 103.006 198.057 103.006 197.972 102.974V102.966Z" fill="#263238"/>
<path d="M206.17 108.363L204.976 107.676C204.976 107.676 205.327 108.871 206.17 108.363Z" fill="#263238"/>
<path d="M180.445 161.166H173.698C173.059 161.166 172.435 160.651 172.302 160.01L169.174 145.39C169.042 144.75 169.447 144.234 170.079 144.234H176.826C177.466 144.234 178.09 144.75 178.222 145.39L181.35 160.01C181.483 160.651 181.077 161.166 180.445 161.166Z" fill="#263238"/>
<path d="M179.665 161.166H172.918C172.279 161.166 171.655 160.651 171.522 160.01L168.394 145.39C168.262 144.75 168.667 144.234 169.299 144.234H176.046C176.686 144.234 177.31 144.75 177.442 145.39L180.57 160.01C180.703 160.651 180.297 161.166 179.665 161.166Z" fill="#263238"/>
<path opacity="0.2" d="M179.665 161.166H172.918C172.279 161.166 171.655 160.651 171.522 160.01L168.394 145.39C168.262 144.75 168.667 144.234 169.299 144.234H176.046C176.686 144.234 177.31 144.75 177.442 145.39L180.57 160.01C180.703 160.651 180.297 161.166 179.665 161.166Z" fill="white"/>
<path d="M177.247 152.552L179.33 152.091C180.118 151.919 180.937 152.13 181.53 152.669L184.322 155.184C185.437 156.191 185.999 157.675 185.827 159.167L185.718 160.089C182.31 161.096 177.887 159.667 177.887 159.667L176.584 159.401C175.422 159.167 174.689 158.113 174.907 156.98L175.399 154.387C175.57 153.489 176.304 152.763 177.24 152.552H177.247Z" fill="#FFB573"/>
<path d="M213.197 137.338C210.811 137.112 208.697 138.869 208.471 141.251L208.455 141.384C208.385 142.165 208.276 143.117 208.174 144C208.073 144.898 207.948 145.796 207.808 146.694C207.542 148.491 207.223 150.279 206.872 152.044C206.505 153.809 206.068 155.535 205.585 157.238C205.171 158.597 204.695 159.909 204.188 161.19C203.681 161.221 203.011 161.182 202.309 161.073C200.639 160.815 198.175 160.331 196.349 159.745C194.516 159.175 192.668 158.503 190.819 157.8C188.971 157.121 187.106 156.34 185.289 155.606L185.234 155.582C184.345 155.223 183.284 155.496 182.684 156.301C181.974 157.261 182.177 158.62 183.136 159.331C184.852 160.596 186.576 161.697 188.37 162.806C190.164 163.884 192.005 164.892 193.939 165.821C195.881 166.727 198.502 167.586 200.803 168.187C201.958 168.476 203.182 168.734 204.695 168.75C205.452 168.75 206.302 168.679 207.301 168.367C208.268 168.078 209.469 167.422 210.358 166.352C210.491 166.188 210.631 165.993 210.733 165.798L210.811 165.657C211.832 163.767 212.714 161.838 213.431 159.885C214.141 157.933 214.757 155.965 215.249 153.981C215.748 152.005 216.146 150.014 216.458 148.006C216.606 147.007 216.746 145.999 216.856 144.992C216.98 143.969 217.058 143.008 217.113 141.868C217.222 139.564 215.506 137.549 213.19 137.33L213.197 137.338Z" fill="#FFB573"/>
<path d="M214.5 133.886C219.328 137.299 219.554 142.407 216.949 152.193C213.463 153.942 204.992 151.724 204.992 151.724C204.992 151.724 207.659 136.541 214.5 133.886Z" fill="#51BD88"/>
<path d="M197.153 114.51C197.153 114.51 199.454 114.049 205.85 114.244C205.046 116.15 203.603 117.665 200.327 117.563C198.682 117.673 197.27 116.423 197.161 114.783C197.161 114.689 197.161 114.603 197.161 114.51H197.153Z" fill="#263238"/>
<path d="M201.88 116.072C200.624 115.962 199.36 116.259 198.284 116.907C198.877 117.321 199.587 117.548 200.32 117.54C201.576 117.649 202.831 117.36 203.916 116.704C203.323 116.282 202.613 116.056 201.888 116.064L201.88 116.072Z" fill="#BA4D3C"/>
<path d="M197.441 114.463C197.558 114.947 197.933 115.33 198.416 115.447C200.312 115.494 202.215 115.384 204.095 115.127C204.703 115.088 205.249 114.744 205.553 114.221C202.847 114.096 200.132 114.174 197.434 114.471L197.441 114.463Z" fill="white"/>
<path d="M205.265 97.4058C204.851 97.4683 204.446 97.562 204.056 97.6791V98.0462C204.96 98.0384 205.967 98.1477 207.082 98.4914C212.48 100.139 213.345 103.146 211.512 107.668C210.647 109.808 210.179 114.346 211.177 115.197C211.434 115.416 212.214 115.384 213.228 115.22C213.899 113.682 214.539 111.839 215.358 109.542C217.721 102.904 212.558 96.2733 205.265 97.398V97.4058Z" fill="#263238"/>
<path d="M215.67 115.611C214.539 116.774 213.049 117.298 211.801 117.29C209.937 117.282 209.633 115.353 210.686 113.744C211.63 112.299 213.743 110.566 215.358 111.347C216.949 112.12 216.957 114.283 215.662 115.611H215.67Z" fill="#FFB573"/>
<g opacity="0.9">
<path d="M204.165 148.795C191.038 147.983 185.102 145.554 182.738 144.18C182.66 144.133 182.598 144.086 182.536 144.031C181.857 143.438 182.715 142.344 183.495 142.797C185.562 143.992 191.256 146.421 204.259 147.225C204.688 147.249 205.023 147.616 205 148.046C204.976 148.475 204.602 148.811 204.165 148.78V148.795Z" fill="white"/>
</g>
<g opacity="0.9">
<path d="M203.479 156.23C203.463 156.668 203.089 157.004 202.66 156.988C191.209 156.449 183.316 153.067 180.952 151.927C180.547 151.732 180.399 151.24 180.609 150.849C180.812 150.482 181.257 150.342 181.631 150.521C183.877 151.591 191.677 154.91 202.73 155.426C203.159 155.449 203.494 155.801 203.479 156.23Z" fill="white"/>
</g>
<g opacity="0.9">
<path d="M190.265 169.257C184.189 168.062 181.054 167.258 179.743 166.883C179.314 166.758 179.08 166.305 179.221 165.883C179.353 165.493 179.767 165.266 180.164 165.384C181.436 165.743 184.548 166.555 190.562 167.734C190.983 167.82 191.264 168.226 191.178 168.648C191.1 169.07 190.687 169.351 190.258 169.265L190.265 169.257Z" fill="white"/>
</g>
<path d="M204.149 100.038C203.65 100.303 202.972 99.9987 202.73 99.4832C202.488 98.9678 202.621 98.3352 202.948 97.8666C203.276 97.398 203.767 97.0778 204.274 96.82C203.962 97.2886 203.361 98.0774 203.377 98.6476C203.393 99.2099 203.603 100.202 204.142 100.038H204.149Z" fill="#263238"/>
<path d="M210.662 115.947C210.694 116.236 210.374 116.478 210.085 116.431C209.797 116.384 209.578 116.134 209.492 115.853C209.407 115.572 209.43 115.275 209.461 114.986C209.531 114.322 209.648 113.658 209.937 113.057C210.226 112.456 210.694 111.917 211.31 111.675C211.552 111.893 211.559 112.331 211.427 112.627C211.294 112.924 211.068 113.158 210.881 113.424C210.405 114.119 210.28 115.033 210.545 115.829C210.647 115.829 210.561 115.947 210.662 115.954V115.947Z" fill="#263238"/>
<path d="M122.78 165.485H67.2437C62.9771 165.485 59.5217 168.945 59.5217 173.217V215.485C59.5217 219.757 62.9771 223.216 67.2437 223.216H109.177C109.996 229.98 115.744 235.213 122.717 235.213C123.029 235.213 123.326 235.189 123.63 235.166C121.462 232.307 119.691 228.152 118.529 223.209H122.78C127.046 223.209 130.502 219.749 130.502 215.477V173.209C130.502 168.937 127.046 165.477 122.78 165.477V165.485Z" fill="#407BFF"/>
<path d="M122.78 165.485H67.2437C62.9771 165.485 59.5217 168.945 59.5217 173.217V215.485C59.5217 219.757 62.9771 223.216 67.2437 223.216H109.177C109.996 229.98 115.744 235.213 122.717 235.213C123.029 235.213 123.326 235.189 123.63 235.166C121.462 232.307 119.691 228.152 118.529 223.209H122.78C127.046 223.209 130.502 219.749 130.502 215.477V173.209C130.502 168.937 127.046 165.477 122.78 165.477V165.485Z" fill="#375A64"/>
<path d="M133.903 183.44L138.224 179.442L141.913 186.283C141.913 186.283 137.639 189.563 135.096 187.548L133.895 183.44H133.903Z" fill="#FFB573"/>
<path d="M133.903 183.44L130.962 189.704L135.002 193.047L138.52 187.322L133.903 183.44Z" fill="#FFB573"/>
<path d="M142.334 180.363L143.044 182.948C143.395 184.213 142.919 185.619 141.913 186.283L140.33 187.322L135.915 179.567L139.698 178.614C140.845 178.301 141.976 179.059 142.334 180.371V180.363Z" fill="#FFB573"/>
<path d="M133.903 183.44C133.903 183.44 135.439 178.614 135.213 177.138C135.08 176.255 135.977 176.404 136.726 176.661C137.303 176.864 137.701 177.395 137.725 178.012C137.787 179.59 137.748 182.62 136.531 182.815C134.878 183.081 133.903 183.44 133.903 183.44Z" fill="#FFB573"/>
<path d="M138.949 188.462C137.779 187.15 136.196 186.189 134.339 185.807L133.021 185.533C132.272 185.377 132.093 185.557 131.999 185.76L131.625 186.346L130.86 187.517C130.338 188.29 129.831 189.071 129.293 189.829C128.255 191.367 127.171 192.851 126.079 194.273C124.995 195.686 123.848 197.022 122.717 198.1C122.608 198.201 122.499 198.303 122.39 198.396C121.992 197.951 121.594 197.498 121.212 197.022C120.096 195.616 119.028 194.101 118.022 192.515C117.015 190.922 113.755 186.221 112.866 184.526C112.421 183.682 111.984 182.823 111.571 181.964L110.97 180.676C110.783 180.269 110.573 179.777 110.448 179.465C110.424 179.41 110.385 179.324 110.362 179.262C109.044 176.31 105.581 174.982 102.632 176.31C99.6838 177.63 98.3578 181.097 99.6838 184.049C99.9646 184.682 100.191 185.135 100.44 185.666L101.197 187.166C101.712 188.157 102.242 189.126 102.788 190.094C103.888 192.023 107.421 196.944 108.716 198.787C110.011 200.63 111.431 202.434 113.014 204.16C114.605 205.886 116.36 207.55 118.404 209.049L118.653 209.229C119.823 210.08 121.36 210.4 122.865 209.963C124.831 209.401 126.126 208.518 127.226 207.682C128.318 206.831 129.183 205.964 129.971 205.097C131.547 203.363 132.795 201.606 133.957 199.833C135.104 198.061 136.11 196.249 137.061 194.437C137.522 193.515 137.974 192.601 138.395 191.672L139.019 190.266L139.323 189.555C139.448 189.321 139.495 189.071 138.965 188.478L138.949 188.462Z" fill="#263238"/>
<path opacity="0.4" d="M110.042 185.979L105.752 189.009L104.481 191.953C104.692 192.344 104.894 192.734 105.113 193.117C106.213 195.046 107.422 196.92 108.716 198.771C110.011 200.614 111.431 202.418 113.014 204.144C113.755 204.949 114.535 205.738 115.362 206.503C113.287 201.559 110.042 185.979 110.042 185.979Z" fill="black"/>
<path d="M71.6974 209.721C72.0328 217.507 70.8004 217.171 70.7692 223.209H108.779C110.846 204.769 109.878 201.934 109.917 189.696C109.941 182.808 108.864 175.779 102.016 175.06C94.4032 174.264 84.895 174.342 77.836 175.216C72.7738 175.841 69.1858 180.512 69.9268 185.565C71.4634 195.975 70.6288 201.88 71.6974 209.721Z" fill="#263238"/>
<path opacity="0.9" d="M98.5452 174.771C93.6156 174.443 88.218 174.435 83.3352 174.724C83.4444 176.279 84.63 180.223 93.2646 183.573C93.2646 183.573 95.1912 179.387 96.8136 181.277C96.8136 181.277 98.1162 178.871 100.909 183.292C100.909 183.292 105.074 178.825 98.5452 174.771Z" fill="white"/>
<path opacity="0.4" d="M78.0076 185.846C78.8422 193.086 74.2246 205.191 71.7364 211.048C71.7364 210.635 71.713 210.189 71.6974 209.721C71.0266 204.824 71.1046 200.692 70.8784 195.749L78.0076 185.846Z" fill="black"/>
<path d="M87.0635 160.893C87.0713 167.422 85.8389 171.186 84.3803 174.717C84.2399 175.052 84.3179 175.451 84.5909 175.701C87.0791 177.95 90.8855 179.785 96.0569 179.856C101.166 179.926 100.869 178.325 99.6605 176.528C99.4889 176.271 99.2549 176.06 98.9897 175.904C95.4953 173.826 95.3705 171.046 96.3455 169.375L87.0635 160.901V160.893Z" fill="#FFB573"/>
<path opacity="0.2" d="M87.0712 160.893L96.3532 169.367C95.7994 170.304 95.6044 171.6 96.1582 172.92C94.3252 172.983 92.4532 172.397 90.8152 170.999C88.4206 168.961 87.6094 166.555 87.0166 163.166C87.0556 162.447 87.0712 161.697 87.0712 160.893Z" fill="black"/>
<path d="M84.3024 156.519C84.7158 162.76 83.8266 163.759 87.0012 166.922C91.767 171.678 99.528 172.592 100.628 166.258C101.618 160.557 102.164 150.24 96.0336 147.843C89.9964 145.476 83.8968 150.279 84.3102 156.519H84.3024Z" fill="#FFB573"/>
<path d="M99.4499 163.236C99.4499 163.236 97.2581 162.541 91.0415 162.275C91.7045 164.517 93.0071 166.376 96.1895 166.469C99.3719 166.571 99.4499 163.228 99.4499 163.228V163.236Z" fill="#263238"/>
<path d="M94.77 164.681C96.3066 164.728 97.4064 165.188 98.202 165.891C97.7418 166.258 97.0866 166.5 96.1974 166.469C94.6608 166.422 93.5688 165.969 92.7732 165.259C93.2334 164.892 93.8808 164.65 94.77 164.681Z" fill="#FF5652"/>
<path d="M99.169 163.166C98.9818 163.626 98.7868 164.095 98.1628 164.22C96.868 164.267 93.5686 163.697 92.6794 163.439C92.11 163.306 91.6342 163.056 91.3066 162.299C96.088 162.517 98.4124 162.986 99.1612 163.173L99.169 163.166Z" fill="white"/>
<path d="M97.0085 157.433C97.0085 157.433 98.2565 159.636 99.4343 160.604C98.8103 161.385 97.5545 161.26 97.5545 161.26L97.0085 157.433Z" fill="#FF5652"/>
<path d="M90.8542 154.739C90.7996 154.731 90.7528 154.707 90.7138 154.668C90.589 154.551 90.5734 154.356 90.6904 154.223C91.8526 152.927 93.2878 153.13 93.3424 153.138C93.514 153.161 93.631 153.325 93.5998 153.497C93.5764 153.669 93.4126 153.786 93.241 153.762C93.1942 153.762 92.0788 153.614 91.1506 154.645C91.0726 154.731 90.9556 154.762 90.8464 154.746L90.8542 154.739Z" fill="#263238"/>
<path d="M101.213 155.848C101.111 155.863 101.01 155.832 100.932 155.754C99.996 154.746 98.8806 154.918 98.8338 154.926C98.6622 154.957 98.5062 154.84 98.475 154.668C98.4438 154.497 98.5608 154.34 98.7324 154.309C98.7948 154.301 100.214 154.059 101.392 155.324C101.509 155.449 101.501 155.652 101.377 155.77C101.33 155.816 101.275 155.84 101.213 155.848Z" fill="#263238"/>
<path d="M60.1223 210.986C60.1301 211.275 60.1769 211.572 60.2549 211.861C61.0115 214.688 61.9865 216.89 62.9927 219.132C63.5621 220.374 64.1471 221.584 64.7477 222.779C65.5355 223.045 66.3701 223.201 67.2437 223.201H75.6521C75.3713 222.576 75.0983 221.951 74.8175 221.334C73.8971 219.296 73.0313 217.25 72.2591 215.227C71.5961 213.501 70.9877 211.72 70.6211 210.197C70.6835 209.713 70.8161 208.987 71.0111 208.26C71.2607 207.315 71.5805 206.3 71.9549 205.277C72.7037 203.223 73.5929 201.106 74.5289 198.998C75.4727 196.889 76.5023 194.78 77.5397 192.687C78.5771 190.602 79.6769 188.462 80.7611 186.478L80.8001 186.408C80.8001 186.408 80.8391 186.33 80.8625 186.291C82.3367 183.409 81.1979 179.879 78.3197 178.403C75.4415 176.927 71.9159 178.067 70.4417 180.949C69.2639 183.245 68.2109 185.44 67.1579 187.712C66.1205 189.977 65.1377 192.273 64.1939 194.624C63.2579 196.975 62.3765 199.365 61.6199 201.903C61.2377 203.168 60.8867 204.488 60.5981 205.902C60.3251 207.331 60.0599 208.807 60.1067 210.806V210.978L60.1223 210.986Z" fill="#263238"/>
<path d="M81.4709 160.698C82.0871 162.197 83.2415 163.259 84.3491 163.736C86.0183 164.454 86.9387 162.814 86.5409 160.948C86.1821 159.261 84.8873 156.855 83.1791 156.941C81.4943 157.019 80.7611 158.987 81.4631 160.698H81.4709Z" fill="#FFB573"/>
<path d="M92.3284 156.863C92.2972 157.41 92.5624 157.863 92.9212 157.886C93.28 157.91 93.592 157.488 93.6154 156.933C93.6466 156.379 93.3814 155.934 93.0304 155.91C92.6794 155.887 92.3596 156.308 92.3284 156.863Z" fill="#2E353A"/>
<path d="M98.4981 157.222C98.4669 157.769 98.7321 158.222 99.0831 158.245C99.4341 158.269 99.7539 157.847 99.7851 157.293C99.8163 156.746 99.5511 156.293 99.2001 156.269C98.8491 156.246 98.5215 156.668 98.4981 157.222Z" fill="#2E353A"/>
<path d="M116.345 55.9349H60.8089C56.5423 55.9349 53.0869 59.3947 53.0869 63.6668V105.934C53.0869 110.206 56.5423 113.666 60.8089 113.666H102.742C103.561 120.43 109.309 125.662 116.283 125.662C116.595 125.662 116.891 125.639 117.195 125.615C115.027 122.757 113.256 118.602 112.094 113.666H116.345C120.612 113.666 124.067 110.206 124.067 105.934V63.6668C124.067 59.3947 120.612 55.9349 116.345 55.9349Z" fill="#407BFF"/>
<path d="M116.345 55.9349H60.8089C56.5423 55.9349 53.0869 59.3947 53.0869 63.6668V105.934C53.0869 110.206 56.5423 113.666 60.8089 113.666H102.742C103.561 120.43 109.309 125.662 116.283 125.662C116.595 125.662 116.891 125.639 117.195 125.615C115.027 122.757 113.256 118.602 112.094 113.666H116.345C120.612 113.666 124.067 110.206 124.067 105.934V63.6668C124.067 59.3947 120.612 55.9349 116.345 55.9349Z" fill="#375A64"/>
<path d="M102.742 113.666C102.188 107.676 102.773 100.03 102.773 100.03C103.256 92.0325 100.87 83.3869 99.0679 81.9108C96.4705 79.7709 94.0525 77.7481 93.1945 80.4426C92.7031 81.9889 92.5471 84.5818 92.5783 87.4637C92.6563 94.4458 94.0993 103.154 94.8403 107.176C95.1055 108.605 95.7451 113.674 95.7451 113.674H102.742V113.666Z" fill="#51BD88"/>
<path d="M97.89 82.2467C97.7106 81.0752 96.8604 80.1224 95.7216 79.81C93.7638 79.2867 90.402 78.4354 87.3288 77.8887C83.7252 77.303 80.0904 76.9671 76.44 76.889C74.1312 76.7953 71.8614 76.8656 70.0596 76.9671C69.849 76.9828 69.6306 77.0218 69.4278 77.0765C67.8288 77.5295 66.9006 79.2008 67.353 80.794C71.9784 97.3277 72.9378 105.247 73.1796 113.666H95.7528C96.8058 106.028 98.8728 99.7566 99.06 95.2659C99.3252 88.6977 98.2176 84.1835 97.89 82.2545V82.2467Z" fill="white"/>
<path opacity="0.8" d="M97.89 82.2467C97.7106 81.0752 96.8604 80.1224 95.7216 79.81C93.7638 79.2867 90.402 78.4354 87.3288 77.8887C83.7252 77.303 80.0904 76.9671 76.44 76.889C74.1312 76.7953 71.8614 76.8656 70.0596 76.9671C69.849 76.9828 69.6306 77.0218 69.4278 77.0765C67.8288 77.5295 66.9006 79.2008 67.353 80.794C71.9784 97.3277 72.9378 105.247 73.1796 113.666H95.7528C96.8058 106.028 98.8728 99.7566 99.06 95.2659C99.3252 88.6977 98.2176 84.1835 97.89 82.2545V82.2467Z" fill="white"/>
<path d="M88.6159 74.0696C87.1339 76.0768 86.0419 78.451 88.3741 81.1064C88.8656 81.6687 89.1931 82.3716 89.2087 83.1136C89.2321 84.3085 88.5457 85.4644 84.6613 83.176C79.0297 79.8568 79.5055 76.108 79.5055 76.108C82.4695 75.2099 84.2323 68.9854 84.9187 65.424L88.6159 74.0618V74.0696Z" fill="#FFB573"/>
<path opacity="0.2" d="M85.2308 70.7738C84.794 72.289 86.4008 74.7101 87.6176 75.6629C87.8984 75.1006 88.2338 74.5617 88.6082 74.0618L86.4164 68.9541C85.9016 69.4696 85.496 70.0866 85.223 70.7738H85.2308Z" fill="black"/>
<path d="M100.051 55.3414C102.032 57.8562 97.5703 65.424 97.0867 63.8464C96.3067 61.2613 95.1679 56.0443 95.1835 53.8809C95.2069 50.4914 98.0773 52.8266 100.051 55.3414Z" fill="#263238"/>
<path d="M83.624 56.1301C85.8314 52.3579 90.6752 51.1005 94.4426 53.3107C99.7544 56.3879 99.3488 65.01 97.3988 69.9928C95.2616 75.5379 88.0466 76.2408 84.3026 71.2033C81.791 67.8451 82.1108 65.4005 82.5554 59.6134C82.6334 58.3794 83 57.1845 83.624 56.1223V56.1301Z" fill="#FFB573"/>
<path d="M90.6829 62.5497C90.6439 63.0183 90.8545 63.4245 91.1587 63.4635C91.4629 63.4947 91.7593 63.1355 91.8061 62.6669C91.8529 62.1983 91.6345 61.7922 91.3303 61.7531C91.0261 61.7219 90.7531 62.1046 90.6829 62.5497Z" fill="#263238"/>
<path d="M91.1743 61.8077L92.3365 61.5893C92.3365 61.5893 91.6813 62.3849 91.1743 61.8077Z" fill="#263238"/>
<path d="M96.5955 63.8696C96.5565 64.3382 96.7671 64.7443 97.0713 64.7834C97.3755 64.8146 97.6719 64.4554 97.7187 63.9868C97.7655 63.5182 97.5471 63.1121 97.2429 63.073C96.9387 63.0418 96.6657 63.4245 96.5955 63.8696Z" fill="#263238"/>
<path d="M97.0869 63.1276L98.2491 62.9092C98.2491 62.9092 97.5939 63.7048 97.0869 63.1276Z" fill="#263238"/>
<path d="M94.3567 67.439C94.9105 67.6655 95.5345 67.6342 96.0649 67.3609C95.5033 66.3534 95.0821 65.2678 94.8169 64.1432L94.3567 67.439Z" fill="#ED893E"/>
<path d="M89.9263 67.2359C89.8951 67.1656 89.9263 67.0797 89.9887 67.0485C90.0589 67.0172 90.1447 67.0485 90.1759 67.111C90.7609 68.1497 91.8061 68.8448 92.9839 68.9775C93.0541 68.9932 93.1087 69.0556 93.1009 69.1337C93.0931 69.204 93.0229 69.2509 92.9527 69.2431C92.7265 69.2197 92.5081 69.1728 92.2897 69.1103C91.2835 68.8213 90.4255 68.1419 89.9263 67.2203V67.2359Z" fill="#263238"/>
<path d="M90.5036 59.5041C90.41 59.3791 90.4412 59.2073 90.5582 59.1214C91.814 58.1686 93.608 58.7153 93.6782 58.7465C93.8264 58.7934 93.9044 58.9496 93.8576 59.0901C93.8108 59.2385 93.6548 59.3166 93.5144 59.2698C93.4988 59.2698 91.9466 58.7543 90.9014 59.5509C90.8078 59.6212 90.6752 59.629 90.5816 59.5587L90.5036 59.5041Z" fill="#263238"/>
<path d="M98.9899 61.3082C98.6077 60.7146 97.9603 60.3397 97.2583 60.3163C97.1023 60.3163 96.9775 60.1992 96.9775 60.043C96.9775 59.8868 97.0945 59.7618 97.2505 59.7618C98.1397 59.793 98.9665 60.2538 99.4579 60.9958C99.5437 61.1207 99.5047 61.2925 99.3799 61.3785C99.3019 61.4331 99.1927 61.4409 99.1069 61.4019C99.0601 61.3785 99.0211 61.3472 98.9899 61.3082Z" fill="#263238"/>
<path d="M91.892 54.9743C90.1526 55.2867 88.5848 56.4269 87.7424 57.9889C87.3446 58.7309 84.7862 60.3475 84.3494 61.0582C82.9688 63.3388 84.4742 69.8601 83.8268 70.3521C83.1794 70.8441 83.4134 68.9151 82.7894 68.5402C82.1732 68.1731 81.4556 67.9544 80.9174 67.478C80.1686 66.8298 77.4386 59.754 80.7692 55.4741C82.4774 53.2795 84.8642 51.5535 87.602 51.0693C90.3398 50.5851 93.2648 51.2489 95.5268 52.8734C96.26 53.3967 97.5236 54.8337 95.4956 55.4663C94.9574 55.6381 94.9262 55.2008 94.3568 55.0602C93.5534 54.8571 92.711 54.8259 91.892 54.9665V54.9743Z" fill="#263238"/>
<path d="M78.6163 61.0582C80.5429 59.1839 82.9453 59.1839 85.0669 59.1839C86.2525 59.1839 87.2821 59.1839 88.0543 58.848C90.1915 57.9108 91.5097 54.865 91.7437 53.8575C91.9777 52.8734 93.1087 52.1939 93.5299 52.1705C93.8341 52.1471 94.8325 52.2564 95.3161 52.9593C95.6983 53.5138 95.6593 54.3104 95.1991 55.3335L95.4955 55.4663C96.0025 54.3339 96.0337 53.4279 95.5813 52.7719C95.0119 51.944 93.8965 51.8269 93.5065 51.8425C92.9371 51.8737 91.6891 52.6547 91.4239 53.7794C91.2055 54.7009 89.9185 57.6687 87.9217 58.5434C87.2119 58.8558 86.2135 58.8558 85.0669 58.8558C82.9843 58.8558 80.4103 58.8558 78.3901 60.8239L78.6163 61.0582Z" fill="#263238"/>
<path opacity="0.1" d="M78.6163 61.0582C80.5429 59.1839 82.9453 59.1839 85.0669 59.1839C86.2525 59.1839 87.2821 59.1839 88.0543 58.848C90.1915 57.9108 91.5097 54.865 91.7437 53.8575C91.9777 52.8734 93.1087 52.1939 93.5299 52.1705C93.8341 52.1471 94.8325 52.2564 95.3161 52.9593C95.6983 53.5138 95.6593 54.3104 95.1991 55.3335L95.4955 55.4663C96.0025 54.3339 96.0337 53.4279 95.5813 52.7719C95.0119 51.944 93.8965 51.8269 93.5065 51.8425C92.9371 51.8737 91.6891 52.6547 91.4239 53.7794C91.2055 54.7009 89.9185 57.6687 87.9217 58.5434C87.2119 58.8558 86.2135 58.8558 85.0669 58.8558C82.9843 58.8558 80.4103 58.8558 78.3901 60.8239L78.6163 61.0582Z" fill="white"/>
<path d="M80.2699 63.245C80.4103 62.2063 81.3619 61.4722 82.4071 61.6049C83.8423 61.8236 84.4975 63.7605 84.4975 65.0257C84.4819 66.4237 83.4523 67.4624 82.1965 66.6736C81.2527 66.0722 80.5819 65.1116 80.3323 64.0182C80.2621 63.7683 80.2387 63.5028 80.2699 63.2372V63.245Z" fill="#FFB573"/>
<path d="M82.8205 83.8633C82.5085 87.8542 78.8191 102.959 70.8319 103.38C69.5839 103.443 68.3203 102.966 67.3453 102.146C67.3375 102.146 67.3219 102.131 67.3141 102.123C60.8713 98.2414 65.9335 79.396 67.2283 78.3026C69.3889 76.4985 73.1719 76.8812 74.3575 80.4347C74.5291 79.8412 74.6617 79.232 74.7631 78.6228C75.0985 76.5766 76.2061 71.836 78.2497 71.4923C79.4821 71.2815 82.0171 71.1643 82.7503 72.1796C83.4913 73.1871 83.3275 77.2639 82.8205 83.8711V83.8633Z" fill="#51BD88"/>
<g opacity="0.2">
<path d="M82.3992 61.6128L82.4382 61.972L82.8048 65.4318V69.8991L83.4132 67.2437C83.5692 66.5486 83.6082 65.8379 83.5146 65.135L83.0856 61.8158L82.3992 61.6206V61.6128Z" fill="black"/>
</g>
<path d="M78.3901 72.3124L77.4307 65.3537L83.2183 65.3069C83.2183 65.3069 82.7425 70.5317 81.2917 72.3124H78.3823H78.3901Z" fill="#FFB573"/>
<path d="M78.4525 60.5975L82.7425 61.355L83.2027 65.2912L77.4307 65.3459L78.4525 60.5975Z" fill="#FFB573"/>
<path opacity="0.2" d="M72.6259 86.7764C72.6259 86.7764 69.1549 94.8129 69.0535 91.6264C68.9365 88.1744 72.6259 86.7764 72.6259 86.7764Z" fill="black"/>
<path d="M286.564 133.73H265.099C263.055 133.73 261.401 135.386 261.401 137.432V151.279C261.401 153.325 263.055 154.981 265.099 154.981H271.268L274.022 158.589C274.934 159.776 276.721 159.776 277.633 158.589L280.387 154.981H286.556C288.6 154.981 290.254 153.325 290.254 151.279V137.432C290.254 135.386 288.6 133.73 286.556 133.73H286.564Z" fill="#407BFF"/>
<path d="M286.564 133.73H265.099C263.055 133.73 261.401 135.386 261.401 137.432V151.279C261.401 153.325 263.055 154.981 265.099 154.981H271.268L274.022 158.589C274.934 159.776 276.721 159.776 277.633 158.589L280.387 154.981H286.556C288.6 154.981 290.254 153.325 290.254 151.279V137.432C290.254 135.386 288.6 133.73 286.556 133.73H286.564Z" fill="#375A64"/>
<path d="M285.316 143.242L278.444 139.041V141.555H275.293C271.089 141.555 267.68 144.968 267.68 149.178C267.68 149.756 267.751 150.318 267.875 150.857C268.64 147.46 271.666 144.914 275.293 144.914H278.444V147.429L285.316 143.227V143.242Z" fill="white"/>
<path d="M135.525 49.0231H151.983C153.551 49.0231 154.814 50.2961 154.814 51.8581V62.4718C154.814 64.0416 153.543 65.3069 151.983 65.3069H147.248L145.135 68.0716C144.44 68.9854 143.068 68.9854 142.366 68.0716L140.252 65.3069H135.517C133.949 65.3069 132.686 64.0338 132.686 62.4718V51.8581C132.686 50.2883 133.957 49.0231 135.525 49.0231Z" fill="#407BFF"/>
<path d="M135.525 49.0231H151.983C153.551 49.0231 154.814 50.2961 154.814 51.8581V62.4718C154.814 64.0416 153.543 65.3069 151.983 65.3069H147.248L145.135 68.0716C144.44 68.9854 143.068 68.9854 142.366 68.0716L140.252 65.3069H135.517C133.949 65.3069 132.686 64.0338 132.686 62.4718V51.8581C132.686 50.2883 133.957 49.0231 135.525 49.0231Z" fill="#375A64"/>
<path d="M136.477 56.3176L141.742 53.0999V55.029H144.152C147.373 55.029 149.986 57.6453 149.986 60.8708C149.986 61.316 149.932 61.7455 149.838 62.1594C149.253 59.5509 146.929 57.6062 144.152 57.6062H141.742V59.5353L136.477 56.3176Z" fill="white"/>
</g>
<defs>
<clipPath id="clip0_2005_90">
<rect width="390" height="288" fill="white"/>
</clipPath>
</defs>
</svg>
